<svg width="32" height="32" viewBox="0 0 32 32" fill="none" xmlns="http://www.w3.org/2000/svg">
  <rect width="32" height="32" rx="7" fill="#151515"/>
  <g fill="#FFD400" stroke="#FFD400" stroke-linejoin="round">
    <circle cx="10" cy="16" r="3.4" stroke="none"/>
    <path d="M10 12.9 L3.4 15.2 a0.95 0.95 0 0 0 0 1.6 L10 19.1 Z" stroke-width="1.3"/>
    <path d="M11 15 L28 15.6 a0.85 0.85 0 0 1 0 1.6 L11 16.9 Z" stroke-width="0.9"/>
    <path d="M11.2 13.7 L23.8 5.9 a0.85 0.85 0 0 1 1.1 1.2 L12.7 14.9 Z" stroke-width="0.9"/>
    <path d="M9.7 12.4 L13.4 3.9 a0.8 0.8 0 0 1 1.5 0.5 L12 13.2 Z" stroke-width="0.9"/>
    <path d="M11.2 18.3 L23.8 26.1 a0.85 0.85 0 0 0 1.1 -1.2 L12.7 17.1 Z" stroke-width="0.9"/>
    <path d="M9.7 19.6 L13.4 28.1 a0.8 0.8 0 0 0 1.5 -0.5 L12 18.8 Z" stroke-width="0.9"/>
  </g>
</svg>
